<svg width="104" height="104" viewBox="0 0 104 104" fill="none" xmlns="http://www.w3.org/2000/svg">
<rect width="104" height="104" rx="52" fill="white"/>
<g clip-path="url(#clip0_309_854)">
<path d="M36.875 22.6125C33.0625 24.0375 29.625 25.3625 29.25 25.5625C28.2375 26.075 27.125 27.25 26.6 28.375C26.0125 29.6125 20 47.7125 20 48.25C20 49.375 20.9375 50.7125 21.9375 50.9875C22.2 51.05 24.7875 51.3 27.7 51.5125L33 51.925V66.125C33 78.5375 33.025 80.35 33.1875 80.5875C33.575 81.1375 38.5625 82.5625 42.2875 83.175C45.925 83.7875 47.7625 83.925 52.0625 83.925C56.3625 83.925 58.3875 83.7625 61.875 83.175C65.5 82.5625 70.4375 81.125 70.8125 80.5875C70.975 80.35 71 78.625 71 66.125V51.9375L76.2875 51.525C79.1875 51.3 81.7875 51.0625 82.0625 50.9875C83.0625 50.7125 84 49.3875 84 48.2375C84 48.0125 82.5625 43.5125 80.8125 38.25C78.4625 31.2125 77.5 28.475 77.15 27.8875C76.5875 26.9375 75.5875 25.9875 74.6375 25.5125C74.25 25.3125 70.8375 24 67.05 22.575L60.175 20H51.9875H43.8125L36.875 22.6125ZM58.875 22.25C58.875 22.6125 58.3375 24.0125 57.95 24.6875C57.125 26.1 55.2875 27.4125 53.6125 27.8125C51.3 28.35 48.8125 27.6625 47.125 25.9875C46.3 25.175 45.8375 24.4375 45.4125 23.2875C44.8875 21.85 44.1125 22 52 22C58.7375 22 58.875 22 58.875 22.25ZM43.3 23.25C43.4125 23.7 43.7375 24.5375 44.025 25.125C44.45 25.975 44.775 26.4 45.625 27.25C46.825 28.45 47.85 29.1 49.3125 29.5875C50.2 29.8875 50.5 29.925 52 29.925C53.5 29.925 53.8 29.8875 54.6875 29.5875C56.15 29.1 57.175 28.45 58.375 27.25C59.225 26.4 59.55 25.975 59.975 25.125C60.2625 24.5375 60.5875 23.6875 60.7 23.2375L60.9 22.4125L61.8 22.75C62.3125 22.95 62.7 23.175 62.725 23.2875C62.8 23.65 62.025 25.6375 61.4125 26.65C58.6125 31.3375 52.6625 33.2625 47.6625 31.1C44.8625 29.875 42.6 27.4375 41.6 24.5625C41.4 23.975 41.25 23.4 41.275 23.2875C41.3 23.175 41.675 22.95 42.1875 22.75C42.675 22.5625 43.075 22.425 43.075 22.425C43.0875 22.4375 43.1875 22.8 43.3 23.25ZM39.6 24.85C40.8 28.8125 43.9 31.975 47.8875 33.3C49.5875 33.8625 50.9375 34.05 52.675 33.9625C55.05 33.8375 57.225 33.125 59.175 31.825C61.6375 30.1875 63.525 27.675 64.3875 24.875C64.55 24.3625 64.6875 23.9125 64.7 23.9C64.7625 23.8125 73.575 27.175 74 27.4375C74.5625 27.7875 75.3 28.6125 75.6 29.2125C75.7375 29.475 77.2375 33.8625 78.9375 38.975C81.0875 45.425 82 48.35 81.95 48.5625C81.9125 48.725 81.7625 48.925 81.6375 49C81.425 49.1 72.45 49.875 71.375 49.875H71V46.25V42.6125L70.6875 42.3125C70.2875 41.9 69.7125 41.9 69.3125 42.3125L69 42.6125V60.975V79.3375L67.725 79.725C64.625 80.675 61.5 81.3 57.85 81.7125C55.175 82.0125 48.825 82.0125 46.15 81.7125C42.525 81.3 39.6875 80.7375 36.5375 79.8L35 79.3375V60.975V42.6125L34.675 42.2875C34.4125 42.025 34.275 41.9875 33.9 42.05C33 42.1875 33 42.2125 33 46.2625V49.875H32.6625C31.6125 49.875 22.5625 49.1 22.3625 49C22.2375 48.925 22.0875 48.725 22.05 48.5625C22 48.35 22.9125 45.425 25.0625 38.975C26.7625 33.8625 28.2625 29.475 28.4 29.2125C28.7375 28.5375 29.575 27.65 30.1875 27.3375C30.6875 27.075 38.95 23.9125 39.1875 23.8875C39.2625 23.8875 39.45 24.3125 39.6 24.85Z" fill="#8F8F8F"/>
</g>
<defs>
<clipPath id="clip0_309_854">
<rect width="64" height="64" fill="white" transform="translate(20 20)"/>
</clipPath>
</defs>
</svg>
